<svg xmlns="http://www.w3.org/2000/svg" viewBox="0 0 1200 700" role="img" aria-labelledby="title description">
  <title id="title">Pricing intelligence</title>
  <desc id="description">Een dashboard voor prijsmonitoring, marktvergelijking en commerciële besluitvorming.</desc>
  <rect width="1200" height="700" fill="#F7F8FA"/>
  <rect x="88" y="70" width="1024" height="560" rx="28" fill="#0B1C3A"/>
  <rect x="116" y="98" width="968" height="504" rx="20" fill="#FFFFFF"/>
  <rect x="116" y="98" width="968" height="68" rx="20" fill="#FAF7F3"/><circle cx="158" cy="132" r="9" fill="#F2A7BB"/><circle cx="188" cy="132" r="9" fill="#F4A261"/><circle cx="218" cy="132" r="9" fill="#22C7DB"/><rect x="814" y="119" width="228" height="27" rx="13" fill="#E5E8EC"/>
  <text x="166" y="222" fill="#0B1C3A" font-family="Arial, sans-serif" font-size="28" font-weight="700">Markt en prijspositie</text>
  <rect x="166" y="254" width="224" height="104" rx="16" fill="#F7F8FA" stroke="#E5E8EC" stroke-width="3"/><text x="190" y="286" fill="#596372" font-family="Arial, sans-serif" font-size="15">PRIJSINDEX</text><text x="190" y="333" fill="#0B1C3A" font-family="Arial, sans-serif" font-size="35" font-weight="700">98,4</text><path d="M314 327l18-18 18 8 18-31" fill="none" stroke="#22C7DB" stroke-width="7" stroke-linecap="round" stroke-linejoin="round"/>
  <rect x="416" y="254" width="224" height="104" rx="16" fill="#F7F8FA" stroke="#E5E8EC" stroke-width="3"/><text x="440" y="286" fill="#596372" font-family="Arial, sans-serif" font-size="15">MARKTVERSCHIL</text><text x="440" y="333" fill="#0B1C3A" font-family="Arial, sans-serif" font-size="35" font-weight="700">+3,2%</text><circle cx="600" cy="319" r="19" fill="#F2A7BB"/>
  <rect x="666" y="254" width="376" height="104" rx="16" fill="#0B1C3A"/><text x="692" y="286" fill="#FFFFFF" opacity=".65" font-family="Arial, sans-serif" font-size="15">ACTIE</text><text x="692" y="325" fill="#FFFFFF" font-family="Arial, sans-serif" font-size="18" font-weight="700">Controleer 12 prijsafwijkingen</text>
  <rect x="166" y="390" width="586" height="164" rx="16" fill="#F7F8FA" stroke="#E5E8EC" stroke-width="3"/><path d="M202 512C278 488 299 466 350 474S437 523 501 476s105-70 215-35" fill="none" stroke="#22C7DB" stroke-width="8" stroke-linecap="round"/><path d="M202 522C282 519 320 495 376 507s98 26 154-10 103-21 186-37" fill="none" stroke="#F2A7BB" stroke-width="6" stroke-linecap="round"/><line x1="202" y1="430" x2="202" y2="524" stroke="#C8D0D9" stroke-width="2"/><line x1="202" y1="524" x2="716" y2="524" stroke="#C8D0D9" stroke-width="2"/>
  <rect x="778" y="390" width="264" height="164" rx="16" fill="#F7F8FA" stroke="#E5E8EC" stroke-width="3"/><rect x="812" y="490" width="28" height="34" rx="5" fill="#D9F6F8"/><rect x="858" y="456" width="28" height="68" rx="5" fill="#9BE6EC"/><rect x="904" y="424" width="28" height="100" rx="5" fill="#22C7DB"/><rect x="950" y="444" width="28" height="80" rx="5" fill="#F2A7BB"/><text x="812" y="420" fill="#596372" font-family="Arial, sans-serif" font-size="15">MARGE PER GROEP</text>
</svg>
